<?xml version="1.0" standalone="no"?>
<svg xmlns="http://www.w3.org/2000/svg" viewBox="0 0 148.488 29" width="148.488" height="29"><g fill="#4ad0ff" color="#4ad0ff" transform="translate(0, 0) scale(0.29)"><svg width="100.0" height="100.0" x="0.0" y="0.0" viewBox="0 0 100 100"><path fill="currentColor" d="M100,45.5c0-3.025-2.475-5.5-5.5-5.5h-6.577l-4.769-12.4c-1.185-3.08-4.75-6.342-7.924-7.249  C75.23,20.352,67,18,50,18s-25.231,2.352-25.231,2.352c-3.173,0.907-6.738,4.168-7.923,7.249L12.077,40H5.5  C2.475,40,0,42.475,0,45.5S2.475,51,5.5,51h2.346l-1.692,4.4C4.969,58.479,4,63.7,4,67v26c0,3.85,3.15,7,7,7s7-3.15,7-7v-4h64v4  c0,3.85,3.15,7,7,7s7-3.15,7-7V67c0-3.3-0.97-8.521-2.154-11.6L92.153,51H94.5C97.525,51,100,48.525,100,45.5z M17.691,47.124  l5.617-15.247C23.689,30.845,24.9,30,26,30h48c1.1,0,2.312,0.845,2.691,1.876l5.617,15.247C82.688,48.155,82.1,49,81,49H19  C17.9,49,17.311,48.155,17.691,47.124z M17.5,72c-3.038,0-5.5-2.465-5.5-5.5s2.462-5.5,5.5-5.5c3.037,0,5.5,2.465,5.5,5.5  S20.537,72,17.5,72z M82.5,72c-3.038,0-5.5-2.462-5.5-5.5s2.462-5.5,5.5-5.5s5.5,2.462,5.5,5.5S85.538,72,82.5,72z"></path></svg></g><line x1="41" y1="1" x2="41" y2="28" stroke="#0019ff" stroke-linecap="round"></line><path fill="#0019ff" fill-rule="nonzero" d="M4.70 17.21L4.70 17.21Q3.38 17.21 2.32 16.55Q1.25 15.89 0.62 14.78Q0 13.68 0 12.31L0 12.31L0.02 4.82Q0.02 3.50 0.64 2.41Q1.25 1.32 2.32 0.66Q3.38 0 4.70 0L4.70 0Q6.02 0 7.08 0.65Q8.14 1.30 8.76 2.39Q9.38 3.48 9.38 4.82L9.38 4.82L9.38 5.93Q9.38 6.02 9.29 6.02L9.29 6.02L6.60 6.02Q6.50 6.02 6.50 5.93L6.50 5.93L6.50 4.82Q6.50 4.03 5.99 3.46Q5.47 2.88 4.70 2.88L4.70 2.88Q3.84 2.88 3.38 3.47Q2.93 4.06 2.93 4.82L2.93 4.82L2.93 12.31Q2.93 13.20 3.44 13.75Q3.96 14.30 4.70 14.30L4.70 14.30Q5.47 14.30 5.99 13.69Q6.50 13.08 6.50 12.31L6.50 12.31L6.50 11.21Q6.50 11.11 6.60 11.11L6.60 11.11L9.31 11.11Q9.41 11.11 9.41 11.21L9.41 11.21L9.41 12.31Q9.41 13.68 8.77 14.78Q8.14 15.89 7.08 16.55Q6.02 17.21 4.70 17.21ZM9.91 16.85L9.91 16.85L12.89 0.36Q12.91 0.26 13.01 0.26L13.01 0.26L16.49 0.26Q16.58 0.26 16.61 0.36L16.61 0.36L19.46 16.85Q19.49 16.97 19.37 16.97L19.37 16.97L16.70 16.97Q16.61 16.97 16.58 16.85L16.58 16.85L16.32 15.10L13.06 15.10L12.79 16.85Q12.77 16.97 12.67 16.97L12.67 16.97L10.01 16.97Q9.91 16.97 9.91 16.85ZM14.62 5.78L13.54 12.53L15.84 12.53L14.86 5.78L14.71 4.90L14.62 5.78ZM23.78 16.97L21.07 16.97Q20.98 16.97 20.98 16.85L20.98 16.85L21.02 0.36Q21.02 0.26 21.12 0.26L21.12 0.26L25.97 0.26Q27.26 0.26 28.36 0.90Q29.45 1.54 30.10 2.60Q30.74 3.67 30.74 5.02L30.74 5.02Q30.74 5.90 30.48 6.61Q30.22 7.32 29.86 7.81Q29.50 8.30 29.21 8.54L29.21 8.54Q30.50 9.98 30.50 11.93L30.50 11.93L30.53 16.85Q30.53 16.97 30.41 16.97L30.41 16.97L27.70 16.97Q27.60 16.97 27.60 16.90L27.60 16.90L27.60 11.93Q27.60 11.06 26.99 10.43Q26.38 9.79 25.49 9.79L25.49 9.79L23.90 9.79L23.88 16.85Q23.88 16.97 23.78 16.97L23.78 16.97ZM23.90 3.14L23.90 6.91L25.97 6.91Q26.71 6.91 27.29 6.36Q27.86 5.81 27.86 5.02L27.86 5.02Q27.86 4.25 27.30 3.70Q26.74 3.14 25.97 3.14L25.97 3.14L23.90 3.14ZM36.55 17.21L36.55 17.21Q35.26 17.21 34.19 16.55Q33.12 15.89 32.48 14.80Q31.85 13.70 31.85 12.38L31.85 12.38L31.85 11.28Q31.85 11.16 31.97 11.16L31.97 11.16L34.66 11.16Q34.75 11.16 34.75 11.28L34.75 11.28L34.75 12.38Q34.75 13.18 35.28 13.74Q35.81 14.30 36.55 14.30L36.55 14.30Q37.30 14.30 37.82 13.73Q38.35 13.15 38.35 12.38L38.35 12.38Q38.35 11.50 37.20 10.85L37.20 10.85Q36.82 10.63 36 10.18Q35.18 9.72 34.46 9.31L34.46 9.31Q33.14 8.54 32.51 7.38Q31.87 6.22 31.87 4.75L31.87 4.75Q31.87 3.41 32.52 2.34Q33.17 1.27 34.24 0.65Q35.30 0.02 36.55 0.02L36.55 0.02Q37.82 0.02 38.89 0.66Q39.96 1.30 40.60 2.36Q41.23 3.43 41.23 4.75L41.23 4.75L41.23 6.72Q41.23 6.82 41.14 6.82L41.14 6.82L38.45 6.82Q38.35 6.82 38.35 6.72L38.35 6.72L38.33 4.75Q38.33 3.91 37.80 3.38Q37.27 2.86 36.55 2.86L36.55 2.86Q35.81 2.86 35.28 3.42Q34.75 3.98 34.75 4.75L34.75 4.75Q34.75 5.54 35.09 6.07Q35.42 6.60 36.31 7.08L36.31 7.08Q36.43 7.15 36.78 7.33Q37.13 7.51 37.54 7.74Q37.94 7.97 38.27 8.14Q38.59 8.30 38.66 8.35L38.66 8.35Q39.86 9.02 40.56 10.00Q41.26 10.97 41.26 12.38L41.26 12.38Q41.26 13.75 40.62 14.84Q39.98 15.94 38.92 16.57Q37.85 17.21 36.55 17.21ZM50.78 16.97L43.03 16.97Q42.94 16.97 42.94 16.85L42.94 16.85L42.96 0.36Q42.96 0.26 43.06 0.26L43.06 0.26L50.76 0.26Q50.86 0.26 50.86 0.38L50.86 0.38L50.86 3.07Q50.86 3.17 50.76 3.17L50.76 3.17L45.84 3.17L45.84 6.91L50.76 6.91Q50.86 6.91 50.86 7.01L50.86 7.01L50.88 9.72Q50.88 9.82 50.78 9.82L50.78 9.82L45.84 9.82L45.84 14.02L50.78 14.02Q50.88 14.02 50.88 14.14L50.88 14.14L50.88 16.87Q50.88 16.97 50.78 16.97L50.78 16.97ZM58.13 16.97L55.42 16.97Q55.32 16.97 55.32 16.85L55.32 16.85L55.32 3.17L52.20 3.17Q52.08 3.17 52.08 3.05L52.08 3.05L52.10 0.36Q52.10 0.26 52.20 0.26L52.20 0.26L61.32 0.26Q61.44 0.26 61.44 0.36L61.44 0.36L61.44 3.05Q61.44 3.17 61.34 3.17L61.34 3.17L58.20 3.17L58.22 16.85Q58.22 16.97 58.13 16.97L58.13 16.97ZM67.73 16.97L65.02 16.97Q64.92 16.97 64.92 16.85L64.92 16.85L64.92 3.17L61.80 3.17Q61.68 3.17 61.68 3.05L61.68 3.05L61.70 0.36Q61.70 0.26 61.80 0.26L61.80 0.26L70.92 0.26Q71.04 0.26 71.04 0.36L71.04 0.36L71.04 3.05Q71.04 3.17 70.94 3.17L70.94 3.17L67.80 3.17L67.82 16.85Q67.82 16.97 67.73 16.97L67.73 16.97ZM75.05 16.97L72.34 16.97Q72.22 16.97 72.22 16.85L72.22 16.85L72.24 0.36Q72.24 0.26 72.34 0.26L72.34 0.26L75.02 0.26Q75.12 0.26 75.12 0.36L75.12 0.36L75.14 16.85Q75.14 16.97 75.05 16.97L75.05 16.97ZM79.87 16.97L77.47 16.97Q77.28 16.97 77.28 16.80L77.28 16.80L77.26 0.46Q77.26 0.26 77.45 0.26L77.45 0.26L79.61 0.26L83.66 9.72L83.54 0.46Q83.54 0.26 83.76 0.26L83.76 0.26L86.14 0.26Q86.28 0.26 86.28 0.46L86.28 0.46L86.30 16.82Q86.30 16.97 86.18 16.97L86.18 16.97L84.07 16.97L79.92 8.14L80.09 16.78Q80.09 16.97 79.87 16.97L79.87 16.97ZM92.78 17.21L92.78 17.21Q91.49 17.21 90.43 16.56Q89.38 15.91 88.74 14.82Q88.10 13.73 88.10 12.38L88.10 12.38L88.10 4.78Q88.10 3.48 88.74 2.39Q89.38 1.30 90.44 0.65Q91.51 0 92.78 0L92.78 0Q94.10 0 95.17 0.64Q96.24 1.27 96.86 2.35Q97.49 3.43 97.49 4.78L97.49 4.78L97.49 5.88Q97.49 5.98 97.37 5.98L97.37 5.98L94.68 5.98Q94.58 5.98 94.58 5.88L94.58 5.88L94.58 4.97Q94.58 4.06 94.07 3.46Q93.55 2.86 92.78 2.86L92.78 2.86Q92.09 2.86 91.55 3.43Q91.01 4.01 91.01 4.78L91.01 4.78L91.01 12.38Q91.01 13.18 91.54 13.74Q92.06 14.30 92.78 14.30L92.78 14.30Q93.55 14.30 94.07 13.75Q94.58 13.20 94.58 12.38L94.58 12.38L94.58 11.21L92.90 11.21Q92.78 11.21 92.78 11.09L92.78 11.09L92.78 8.40Q92.78 8.28 92.90 8.28L92.90 8.28L97.39 8.28Q97.49 8.28 97.49 8.40L97.49 8.40L97.49 12.38Q97.49 13.73 96.85 14.82Q96.22 15.91 95.16 16.56Q94.10 17.21 92.78 17.21Z" transform="translate(51, 5.896)"></path></svg>